<?xml version="1.0" encoding="utf-8"?>

<!-- Uploaded to: SVG Repo, www.svgrepo.com, Generator: SVG Repo Mixer Tools -->
<svg fill="#000000" height="800px" width="800px" version="1.1" id="Icons" xmlns="http://www.w3.org/2000/svg" xmlns:xlink="http://www.w3.org/1999/xlink" 
	 viewBox="0 0 32 32" xml:space="preserve">
<g>
	<circle cx="16" cy="11" r="2"/>
	<path d="M16,2C8,2,0,4.1,0,8v16c0,2.1,2.4,3.9,6.8,5c0.3,0.1,0.6,0,0.9-0.2S8,28.3,8,28v-7.2c2.4-0.5,5.1-0.8,8-0.8
		c2.9,0,5.6,0.3,8,0.8V28c0,0.3,0.1,0.6,0.4,0.8c0.2,0.1,0.4,0.2,0.6,0.2c0.1,0,0.2,0,0.2,0c4.4-1.1,6.8-2.9,6.8-5V8
		C32,4.1,24,2,16,2z M6,26.7c-2.7-0.9-4-2-4-2.7V11c1,0.7,2.3,1.3,4,1.7V26.7z M23.8,11.6C23.6,11.8,20.3,16,16,16s-7.6-4.2-7.8-4.4
		c-0.3-0.4-0.3-0.9,0-1.2C8.4,10.2,11.7,6,16,6s7.6,4.2,7.8,4.4C24.1,10.7,24.1,11.3,23.8,11.6z M30,24c0,0.7-1.3,1.8-4,2.7V12.8
		c1.7-0.5,3-1.1,4-1.7V24z"/>
</g>
</svg>